<?xml version="1.0" standalone="no"?><!DOCTYPE svg PUBLIC "-//W3C//DTD SVG 1.1//EN" "http://www.w3.org/Graphics/SVG/1.1/DTD/svg11.dtd"><svg t="1706751862172" class="icon" viewBox="0 0 1024 1024" version="1.1" xmlns="http://www.w3.org/2000/svg" p-id="4837" data-darkreader-inline-fill="" xmlns:xlink="http://www.w3.org/1999/xlink" width="128" height="128"><path d="M651.264 390.0416h325.2736a47.7184 47.7184 0 0 1 46.592 48.896v536.1664a47.7696 47.7696 0 0 1-46.592 48.896H419.328a47.8208 47.8208 0 0 1-46.592-48.896v-341.1456H46.848a47.8208 47.8208 0 0 1-46.592-48.896V48.896A47.7696 47.7696 0 0 1 46.8992 0H604.672a47.7696 47.7696 0 0 1 46.592 48.896v341.1456zM46.9504 585.0624H604.672V48.896H46.8992v536.1664z m635.648-16.4864l-102.2976 278.5792h45.4656l25.0368-71.6288h113.664l25.088 71.68h43.7248l-102.912-278.6304h-47.7184z m-22.1696 170.5472l44.3904-126.208 47.1552 126.208h-91.5456zM306.176 113.7152h35.2256v71.0656h135.3216v188.2112h-35.2256v-22.1696H341.4016v130.7648h-33.536V350.8224H210.6368v22.1696h-35.2256V184.7808h132.4544L306.176 113.7152z m-95.5392 200.704h96.6656V221.184H210.6368V314.368z m130.7648 0h100.096V221.184H341.4016V314.368z" fill="#1296db" p-id="4838" data-darkreader-inline-fill="" style="--darkreader-inline-fill: #0e78af;"></path></svg>